<!DOCTYPE svg PUBLIC "-//W3C//DTD SVG 1.1//EN" "http://www.w3.org/Graphics/SVG/1.1/DTD/svg11.dtd">
<!-- Uploaded to: SVG Repo, www.svgrepo.com, Transformed by: SVG Repo Mixer Tools -->
<svg fill="#208078" width="800px" height="800px" viewBox="0 -16 544 544" xmlns="http://www.w3.org/2000/svg">
<g id="SVGRepo_bgCarrier" stroke-width="0"/>
<g id="SVGRepo_tracerCarrier" stroke-linecap="round" stroke-linejoin="round"/>
<g id="SVGRepo_iconCarrier">
<path d="M146 32h380c9.9 0 18 8.1 18 18v108c0 9.9-8.1 18-18 18H146c-9.9 0-18-8.1-18-18V50c0-9.9 8.1-18 18-18zm14 32v80h352V64H160zM32 256v80h224v-80H32zm96 112v80h224v-80H128zM18 224h252c9.9 0 18 8.1 18 18v94h78c9.9 0 18 8.1 18 18v108c0 9.9-8.1 18-18 18H114c-9.9 0-18-8.1-18-18v-94H18c-9.9 0-18-8.1-18-18V242c0-9.9 8.1-18 18-18z"/>
</g>
</svg>